<svg xmlns="http://www.w3.org/2000/svg" viewBox="0 0 1923.55 256"><defs><style>.cls-1{fill:#231f20;}</style></defs><title>eyebeam_logo</title><g id="Layer_2" data-name="Layer 2"><g id="Layer_1-2" data-name="Layer 1"><polygon class="cls-1" points="0 256 0 0 256 0 256 51.2 51.2 51.2 51.2 102.4 256 102.4 256 153.6 51.2 153.6 51.2 204.8 256 204.8 256 256 0 256"/><polygon class="cls-1" points="535.61 0 472.45 0 407.61 97.27 342.76 0 279.61 0 379.36 149.63 379.36 256 435.85 256 435.85 149.63 535.61 0"/><path class="cls-1" d="M1595.53,256h55.19L1548.32,0h-51.2l-102.4,256h55.18l20.48-51.2h104.68ZM1490.86,153.6,1522.72,74l31.85,79.64Z"/><polygon class="cls-1" points="1667.55 0 1667.55 256 1718.75 256 1718.75 51.2 1769.95 51.2 1769.95 256 1821.15 256 1821.15 51.2 1872.35 51.2 1872.35 256 1923.55 256 1923.55 0 1667.55 0"/><polygon class="cls-1" points="1373.84 256 1373.84 204.8 1169.04 204.8 1169.04 153.6 1373.84 153.6 1373.84 102.4 1169.04 102.4 1169.04 51.2 1373.84 51.2 1373.84 0 1117.84 0 1117.84 256 1373.84 256"/><path class="cls-1" d="M839.52,256h179.2a76.78,76.78,0,0,0,50.73-134.43A76.76,76.76,0,0,0,1009.26.06V0H839.52ZM1007.07,51.2a25.6,25.6,0,1,1,0,51.2H890.72V51.2Zm11.65,102.4a25.6,25.6,0,0,1,0,51.2h-128V153.6Z"/><polygon class="cls-1" points="811.23 0 811.23 51.2 606.43 51.2 606.43 102.4 811.23 102.4 811.23 153.6 606.43 153.6 606.43 204.8 811.23 204.8 811.23 256 555.23 256 555.23 0 811.23 0"/></g></g></svg>