<?xml version="1.0" encoding="UTF-8"?>
<svg width="572px" height="189px" viewBox="0 0 572 189" version="1.1" xmlns="http://www.w3.org/2000/svg" xmlns:xlink="http://www.w3.org/1999/xlink">
    <title>Path 2</title>
    <g id="Page-1" stroke="none" stroke-width="1" fill="none" fill-rule="evenodd" stroke-linecap="round" stroke-linejoin="round">
        <g id="Desktop-HD" transform="translate(-121.000000, -1828.000000)" stroke="#00FF00" stroke-width="4">
            <polyline id="Path-2" points="123.248434 2002.24961 131.219403 1993.46967 137.914814 1938.63954 154.666769 1946.36257 161.750285 1920.74524 170.444801 1933.81142 175.44134 1971.75046 181.743766 1984.77271 191.116854 1967.47399 204.568701 2014.55423 212.272207 1981.01615 217.173552 1967.64974 233.083393 1954.61773 238.677955 1938.63954 254.529214 1916.79341 260.350781 1891.77898 270.068037 1872.59344 277.803276 1872.59344 285.145528 1855.33866 299.502952 1887.4659 307.191813 1872.59344 314.497452 1887.4659 322.98205 1879.035 328.381339 1904.06651 338.196232 1887.4659 341.901531 1863.6109 350.022433 1855.33866 358.309317 1863.6109 365.534406 1855.33866 379.659943 1904.06651 385.686546 1883.70446 401.423083 1863.6109 417.176706 1868.51468 423.564563 1868.51468 429.747384 1851.55037 438.537095 1851.55037 445.464393 1830.49998 452.555232 1851.55037 460.041498 1855.33866 470.547168 1847.50334 475.707249 1841.89902 482.207388 1841.89902 487.948404 1834.1174 496.694179 1841.89902 503.042982 1834.1174 519.0529 1868.51468 528.164811 1863.6109 536.371146 1863.6109 541.14369 1855.33866 546.536026 1855.33866 554.189699 1847.50334 562.029134 1851.55037 568.625302 1856.73348 578.242466 1858.38979 585.398001 1862.15488 590.397016 1868.51468 597.916814 1856.73348 606.076925 1856.73348 612.881688 1883.70446 627.070299 1863.6109 634.442731 1876.32066 641.393822 1869.98705 650.320858 1867.1622 655.891693 1869.98705 663.152044 1868.51468 670.359469 1855.33866 678.325514 1847.50334 685.553694 1855.33866 691 1867.1622"></polyline>
        </g>
    </g>
</svg>