<?xml version="1.0" encoding="UTF-8" standalone="no"?>
<svg width="210px" height="36px" viewBox="0 0 210 36" version="1.1" xmlns="http://www.w3.org/2000/svg" xmlns:xlink="http://www.w3.org/1999/xlink">
    <!-- Generator: Sketch 48.2 (47327) - http://www.bohemiancoding.com/sketch -->
    <title>EYEBEAM</title>
    <desc>Created with Sketch.</desc>
    <defs></defs>
    <g id="menu" stroke="none" stroke-width="1" fill="none" fill-rule="evenodd" transform="translate(-55.000000, -22.000000)">
        <g id="Group-14" fill="#FFFFFF">
            <path d="M57.4717999,52.0342857 L57.4717999,27.9657143 L55,27.9657143 L55,22 L80.2844532,22 L80.2844532,27.9657143 L63.7542913,27.9657143 L63.7542913,36.8628571 L79.100049,36.8628571 L79.100049,42.8285714 L63.7542913,42.8285714 L63.7542913,52.0342857 L80.5934282,52.0342857 L80.5934282,58 L55,58 L55,52.0342857 L57.4717999,52.0342857 Z M91.9740069,58 L91.9740069,52.0342857 L93.8278568,52.0342857 L93.8278568,42.52 L82.6532614,22 L89.502207,22 L96.9176067,36.3485714 C100.076033,30.2113979 102.530644,25.4285886 104.281511,22 L111.130456,22 L100.007357,42.52 L100.007357,52.0342857 L101.861206,52.0342857 L101.861206,58 L91.9740069,58 Z M115.40461,52.0342857 L115.40461,27.9657143 L112.93281,27.9657143 L112.93281,22 L138.217263,22 L138.217263,27.9657143 L121.687102,27.9657143 L121.687102,36.8628571 L137.032859,36.8628571 L137.032859,42.8285714 L121.687102,42.8285714 L121.687102,52.0342857 L138.526238,52.0342857 L138.526238,58 L112.93281,58 L112.93281,52.0342857 L115.40461,52.0342857 Z M142.388426,58 L142.388426,52.0342857 L144.860226,52.0342857 L144.860226,27.9657143 L142.388426,27.9657143 L142.388426,22 L155.67435,22 C158.661123,22 161.201559,23.0199898 163.295733,25.06 C165.389907,27.1000102 166.436979,29.5599856 166.436979,32.44 C166.436979,35.5600156 165.235422,38.0285623 162.832271,39.8457143 C165.372744,41.8685815 166.642962,44.405699 166.642962,47.4571429 C166.642962,50.4400149 165.587308,52.942847 163.475969,54.9657143 C161.364629,56.9885815 158.781281,58 155.725846,58 L142.388426,58 Z M156.034821,42.8285714 L151.142717,42.8285714 L151.142717,52.0342857 L156.034821,52.0342857 C157.236396,52.0342857 158.25772,51.5885759 159.098823,50.6971429 C159.939926,49.8057098 160.360471,48.7257206 160.360471,47.4571429 C160.360471,46.1542792 159.939926,45.0571473 159.098823,44.1657143 C158.25772,43.2742813 157.236396,42.8285714 156.034821,42.8285714 Z M151.142717,36.8628571 L155.983325,36.8628571 C157.15057,36.8628571 158.154729,36.4171473 158.995831,35.5257143 C159.836934,34.6342813 160.257479,33.6057201 160.257479,32.44 C160.257479,31.239994 159.836934,30.1942902 158.995831,29.3028571 C158.154729,28.4114241 157.15057,27.9657143 155.983325,27.9657143 L151.142717,27.9657143 L151.142717,36.8628571 Z M172.71947,52.0342857 L172.71947,27.9657143 L170.24767,27.9657143 L170.24767,22 L195.532124,22 L195.532124,27.9657143 L179.001962,27.9657143 L179.001962,36.8628571 L194.347719,36.8628571 L194.347719,42.8285714 L179.001962,42.8285714 L179.001962,52.0342857 L195.841099,52.0342857 L195.841099,58 L170.24767,58 L170.24767,52.0342857 L172.71947,52.0342857 Z M215.203531,22 L226.017656,58 L219.632173,58 L218.035802,52.3428571 L206.140265,52.3428571 L204.492398,58 L198.158411,58 L209.024031,22 L215.203531,22 Z M212.113781,31.4628571 L207.788131,46.3771429 L216.336439,46.3771429 L212.113781,31.4628571 Z M229.364885,58 L229.364885,22 L236.162334,22 L247.182442,48.7942857 C248.555671,45.4685548 250.538241,40.6686028 253.130211,34.3942857 C255.722181,28.1199686 257.430109,23.9885814 258.254046,22 L265,22 L265,58 L258.769004,58 L258.769004,36.8628571 C257.739083,39.4000127 256.228553,43.0342621 254.237371,47.7657143 C252.246189,52.4971665 250.821485,55.908561 249.963217,58 L244.453163,58 L235.647376,36.8114286 L235.647376,58 L229.364885,58 Z" id="EYEBEAM"></path>
        </g>
    </g>
</svg>